<svg xmlns="http://www.w3.org/2000/svg" viewBox="0 0 1303.34 1247.72"><defs><style>.cls-1{fill:none;stroke:#000;stroke-miterlimit:10;stroke-width:5px;}.cls-2{font-size:370px;}.cls-2,.cls-3{fill:#fff;font-family:Playbill;}.cls-3{font-size:259px;}</style></defs><g id="oitaLAY01"><path id="oita01" class="cls-1" d="M1020.87,642.22l-89.36-38.58L930.19,514l118.89-6.65,38.32-38.16-22.78-43.95,72,15.59,45.11-96.11-13.09-131.11-87-106.79-3.13-3.84-121.77.59-69.17,64.75-43.06,58.09-1.33,2-126.77,4.66-45-39.58-73.86-4.38L594.4,329.32,449.83,309.09,330,359.14,294.49,461.66,255.27,530.5l17.1,91.21-27.68,69.21,44.78,35.83L252,831.79l64.47,41.84,62.15,48.46,46.7-20.54L433.4,845l-40-58.63L398.82,726s52.57-25.58,86.2-10.77c37,16.3,40,5.17,76.8,51.19,23.68,29.63,47.29,102.86,75.68,116.94,0,36.11,41.25,94.82,41.25,94.82l-9.24,74.44,24.34,51.78,71.74,58.81,22.6,30.13,62.49-9.41,15-20.53c9.72-2,42.22-12.23,42.22-12.23l29.85,30.67,7.77,49.77,55.53,20,25.76-20.15,116.88-1.41s29-36.51,33.75-39l1.35-32.41,39.33-7.26,18.17,25.22,57.51-7L1299,1269l36.58-7.94,28.66-47.12,58.09-3.9,42.41-51.88-37-29.24,33.48-74.94,80.07-19.56-12.14-23.7-140.34-9.24L1340.81,965l34.81-65.42,95.82-19.14-20.51-12-.2-26.22L1309,850.73l19.78-29.83,34-19.23-9.49-10.23-100.19,10.91,18.83-71.6,117-116.46-38.63,2.55-119.59,32.39L1119.06,612.4l-98.19,29.82" transform="translate(-241.68 -24.34)"/></g><g id="oitaLAY02"><path id="oita02" class="cls-1" d="M1060.19,56.38,1099.8,27l37.84,7.56-24.48,25.82-53-4" transform="translate(-241.68 -24.34)"/></g><g id="moji"><text class="cls-2" transform="translate(213.08 607.44)">OITA</text><text class="cls-3" transform="translate(390.6 839.54)">Landscape</text></g></svg>